<svg xmlns="http://www.w3.org/2000/svg" viewBox="-12.4 2.4 379.3 116.0" width="379" height="116" xmlns:c2pa="http://c2pa.org/manifest"><metadata><c2pa:manifest>AAAWgmp1bWIAAAAeanVtZGMycGEAEQAQgAAAqgA4m3EDYzJwYQAAABZcanVtYgAAAEdqdW1kYzJtYQARABCAAACqADibcQN1cm46YzJwYTo5YTQ1MWFlOS00MjZiLTQxOTUtYmE5OC0wYTc2NWM3ZThhYjgAAAADl2p1bWIAAAApanVtZGMyYXMAEQAQgAAAqgA4m3EDYzJwYS5hc3NlcnRpb25zAAAAALxqdW1iAAAARGp1bWRjYm9yABEAEIAAAKoAOJtxE2MycGEuaW5ncmVkaWVudC52MwAAAAAYYzJzaIV0FjxCDwK9xE5pJC3ItIIAAABwY2JvcqNpZGM6Zm9ybWF0bWltYWdlL3N2Zyt4bWxqaW5zdGFuY2VJRHgseG1wOmlpZDo0NGIwNTZiNS00NGY5LTQ2ODQtOTQ4Yy1iNjBmMGIxMDYwYzFscmVsYXRpb25zaGlwaHBhcmVudE9mAAAB4mp1bWIAAABBanVtZGNib3IAEQAQgAAAqgA4m3ETYzJwYS5hY3Rpb25zLnYyAAAAABhjMnNoSbXmTDjabAf39mrRYWrH/gAAAZljYm9yomdhY3Rpb25zgqJmYWN0aW9ua2MycGEub3BlbmVkanBhcmFtZXRlcnOha2luZ3JlZGllbnRzgaJjdXJseC1zZWxmI2p1bWJmPWMycGEuYXNzZXJ0aW9ucy9jMnBhLmluZ3JlZGllbnQudjNkaGFzaFggJcEyJc5gCgF5aFjCUE3fwGz9jaLDiDda0faByVk4ZE6kZmFjdGlvbngdY29tLmFudGhyb3BpYy5jbGF1ZGUucHJvdmlkZWRqcGFyYW1ldGVyc6F4H2NvbS5hbnRocm9waWMub3JpZ2luLWNvbmZpZGVuY2VndW5rbm93bmtkZXNjcmlwdGlvbnhmQ2xhdWRlIHByb3ZpZGVkIHRoaXMgZmlsZSBhdCB0aGUgcmVxdWVzdCBvZiBhIHVzZXIgYW5kIG1heSBoYXZlIGNyZWF0ZWQgb3IgbW9kaWZpZWQgdGhlIGZpbGUgY29udGVudHMubXNvZnR3YXJlQWdlbnShZG5hbWVmQ2xhdWRlcmFsbEFjdGlvbnNJbmNsdWRlZPUAAADIanVtYgAAAEBqdW1kY2JvcgARABCAAACqADibcRNjMnBhLmhhc2guZGF0YQAAAAAYYzJzaBNiCKlcs3xpko44rWNsDc0AAACAY2JvcqVjYWxnZnNoYTI1NmNwYWRNAAAAAAAAAAAAAAAAAGRoYXNoWCDINAtQ1mXdjMCHtIDDLP1OclURU8GT3oeH5MZnFjL/iGRuYW1lbmp1bWJmIG1hbmlmZXN0amV4Y2x1c2lvbnOBomVzdGFydBigZmxlbmd0aBkeBAAAAj5qdW1iAAAAJ2p1bWRjMmNsABEAEIAAAKoAOJtxA2MycGEuY2xhaW0udjIAAAACD2Nib3KlY2FsZ2ZzaGEyNTZpc2lnbmF0dXJleE1zZWxmI2p1bWJmPS9jMnBhL3VybjpjMnBhOjlhNDUxYWU5LTQyNmItNDE5NS1iYTk4LTBhNzY1YzdlOGFiOC9jMnBhLnNpZ25hdHVyZWppbnN0YW5jZUlEeCx4bXA6aWlkOjlhNjA0ZDhmLWNmOTktNGQ0Ni05MDFhLTQ0OGRiYTVlYzhmOHJjcmVhdGVkX2Fzc2VydGlvbnODomN1cmx4LXNlbGYjanVtYmY9YzJwYS5hc3NlcnRpb25zL2MycGEuaW5ncmVkaWVudC52M2RoYXNoWCAlwTIlzmAKAXloWMJQTd/AbP2NosOIN1rR9oHJWThkTqJjdXJseCpzZWxmI2p1bWJmPWMycGEuYXNzZXJ0aW9ucy9jMnBhLmFjdGlvbnMudjJkaGFzaFggW01b8Gtk0OoaaT1vy/BghjjLx7Bm4a2vliE3KdsVlPaiY3VybHgpc2VsZiNqdW1iZj1jMnBhLmFzc2VydGlvbnMvYzJwYS5oYXNoLmRhdGFkaGFzaFggF1zhVYiqFX0Oe5QD/S6HLZeBTlHV2J2K0GRitWdlPlh0Y2xhaW1fZ2VuZXJhdG9yX2luZm+jZG5hbWVvQW50aHJvcGljIEZpbGVzZ3ZlcnNpb25lMS4wLjBrc3BlY1ZlcnNpb25lMi40LjAAABA4anVtYgAAAChqdW1kYzJjcwARABCAAACqADibcQNjMnBhLnNpZ25hdHVyZQAAABAIY2JvctKEWQISogEmGCFZAgowggIGMIIBjaADAgECAhRA5aAK7sI50L64g/oGQgU9Z1UTADAKBggqhkjOPQQDAzBJMRcwFQYDVQQKEw5BbnRocm9waWMsIFBCQzEuMCwGA1UEAxMlQW50aHJvcGljIENvbnRlbnQgQ3JlZGVudGlhbHMgUm9vdCBDQTAeFw0yNjA4MDcxODQzNTZaFw0yODA4MDYxOTQzNTZaMEQxFzAVBgNVBAoTDkFudGhyb3BpYywgUEJDMSkwJwYDVQQDEyBBbnRocm9waWMgQ2xhdWRlIENvbnRlbnQgU2lnbmluZzBZMBMGByqGSM49AgEGCCqGSM49AwEHA0IABJh6CmvLUBgFFNU0vUKlOVtE6djd17L5SuwX0LemFisBM3dkd/3cyjxFA3Qo5S46fX0/ihY0VZ7mfb9KF703t5OjWDBWMA4GA1UdDwEB/wQEAwIHgDAVBgNVHSUEDjAMBgorBgEEAYPoXgIBMAwGA1UdEwEB/wQCMAAwHwYDVR0jBBgwFoAUzlHiBIFOZFsj+OPEz5o+nMHXXMIwCgYIKoZIzj0EAwMDZwAwZAIwMXMdFJ4BetLLVY7ORuE9noqbbAZOZn/aArXyTwFAZfKrPzxF2vPoJNf1+UCdg1XGAjBwX1zd9WGqYkqmL5SFqw1QySjr1zJfpJM9+1rdDwSPLMOPOjKuiXjoU/pUUeG9RwmhY3BhZFkNngAAAAAAAAAAAAAAAAAAAAAAAAAAAAAAAAAAAAAAAAAAAAAAAAAAAAAAAAAAAAAAAAAAAAAAAAAAAAAAAAAAAAAAAAAAAAAAAAAAAAAAAAAAAAAAAAAAAAAAAAAAAAAAAAAAAAAAAAAAAAAAAAAAAAAAAAAAAAAAAAAAAAAAAAAAAAAAAAAAAAAAAAAAAAAAAAAAAAAAAAAAAAAAAAAAAAAAAAAAAAAAAAAAAAAAAAAAAAAAAAAAAAAAAAAAAAAAAAAAAAAAAAAAAAAAAAAAAAAAAAAAAAAAAAAAAAAAAAAAAAAAAAAAAAAAAAAAAAAAAAAAAAAAAAAAAAAAAAAAAAAAAAAAAAAAAAAAAAAAAAAAAAAAAAAAAAAAAAAAAAAAAAAAAAAAAAAAAAAAAAAAAAAAAAAAAAAAAAAAAAAAAAAAAAAAAAAAAAAAAAAAAAAAAAAAAAAAAAAAAAAAAAAAAAAAAAAAAAAAAAAAAAAAAAAAAAAAAAAAAAAAAAAAAAAAAAAAAAAAAAAAAAAAAAAAAAAAAAAAAAAAAAAAAAAAAAAAAAAAAAAAAAAAAAAAAAAAAAAAAAAAAAAAAAAAAAAAAAAAAAAAAAAAAAAAAAAAAAAAAAAAAAAAAAAAAAAAAAAAAAAAAAAAAAAAAAAAAAAAAAAAAAAAAAAAAAAAAAAAAAAAAAAAAAAAAAAAAAAAAAAAAAAAAAAAAAAAAAAAAAAAAAAAAAAAAAAAAAAAAAAAAAAAAAAAAAAAAAAAAAAAAAAAAAAAAAAAAAAAAAAAAAAAAAAAAAAAAAAAAAAAAAAAAAAAAAAAAAAAAAAAAAAAAAAAAAAAAAAAAAAAAAAAAAAAAAAAAAAAAAAAAAAAAAAAAAAAAAAAAAAAAAAAAAAAAAAAAAAAAAAAAAAAAAAAAAAAAAAAAAAAAAAAAAAAAAAAAAAAAAAAAAAAAAAAAAAAAAAAAAAAAAAAAAAAAAAAAAAAAAAAAAAAAAAAAAAAAAAAAAAAAAAAAAAAAAAAAAAAAAAAAAAAAAAAAAAAAAAAAAAAAAAAAAAAAAAAAAAAAAAAAAAAAAAAAAAAAAAAAAAAAAAAAAAAAAAAAAAAAAAAAAAAAAAAAAAAAAAAAAAAAAAAAAAAAAAAAAAAAAAAAAAAAAAAAAAAAAAAAAAAAAAAAAAAAAAAAAAAAAAAAAAAAAAAAAAAAAAAAAAAAAAAAAAAAAAAAAAAAAAAAAAAAAAAAAAAAAAAAAAAAAAAAAAAAAAAAAAAAAAAAAAAAAAAAAAAAAAAAAAAAAAAAAAAAAAAAAAAAAAAAAAAAAAAAAAAAAAAAAAAAAAAAAAAAAAAAAAAAAAAAAAAAAAAAAAAAAAAAAAAAAAAAAAAAAAAAAAAAAAAAAAAAAAAAAAAAAAAAAAAAAAAAAAAAAAAAAAAAAAAAAAAAAAAAAAAAAAAAAAAAAAAAAAAAAAAAAAAAAAAAAAAAAAAAAAAAAAAAAAAAAAAAAAAAAAAAAAAAAAAAAAAAAAAAAAAAAAAAAAAAAAAAAAAAAAAAAAAAAAAAAAAAAAAAAAAAAAAAAAAAAAAAAAAAAAAAAAAAAAAAAAAAAAAAAAAAAAAAAAAAAAAAAAAAAAAAAAAAAAAAAAAAAAAAAAAAAAAAAAAAAAAAAAAAAAAAAAAAAAAAAAAAAAAAAAAAAAAAAAAAAAAAAAAAAAAAAAAAAAAAAAAAAAAAAAAAAAAAAAAAAAAAAAAAAAAAAAAAAAAAAAAAAAAAAAAAAAAAAAAAAAAAAAAAAAAAAAAAAAAAAAAAAAAAAAAAAAAAAAAAAAAAAAAAAAAAAAAAAAAAAAAAAAAAAAAAAAAAAAAAAAAAAAAAAAAAAAAAAAAAAAAAAAAAAAAAAAAAAAAAAAAAAAAAAAAAAAAAAAAAAAAAAAAAAAAAAAAAAAAAAAAAAAAAAAAAAAAAAAAAAAAAAAAAAAAAAAAAAAAAAAAAAAAAAAAAAAAAAAAAAAAAAAAAAAAAAAAAAAAAAAAAAAAAAAAAAAAAAAAAAAAAAAAAAAAAAAAAAAAAAAAAAAAAAAAAAAAAAAAAAAAAAAAAAAAAAAAAAAAAAAAAAAAAAAAAAAAAAAAAAAAAAAAAAAAAAAAAAAAAAAAAAAAAAAAAAAAAAAAAAAAAAAAAAAAAAAAAAAAAAAAAAAAAAAAAAAAAAAAAAAAAAAAAAAAAAAAAAAAAAAAAAAAAAAAAAAAAAAAAAAAAAAAAAAAAAAAAAAAAAAAAAAAAAAAAAAAAAAAAAAAAAAAAAAAAAAAAAAAAAAAAAAAAAAAAAAAAAAAAAAAAAAAAAAAAAAAAAAAAAAAAAAAAAAAAAAAAAAAAAAAAAAAAAAAAAAAAAAAAAAAAAAAAAAAAAAAAAAAAAAAAAAAAAAAAAAAAAAAAAAAAAAAAAAAAAAAAAAAAAAAAAAAAAAAAAAAAAAAAAAAAAAAAAAAAAAAAAAAAAAAAAAAAAAAAAAAAAAAAAAAAAAAAAAAAAAAAAAAAAAAAAAAAAAAAAAAAAAAAAAAAAAAAAAAAAAAAAAAAAAAAAAAAAAAAAAAAAAAAAAAAAAAAAAAAAAAAAAAAAAAAAAAAAAAAAAAAAAAAAAAAAAAAAAAAAAAAAAAAAAAAAAAAAAAAAAAAAAAAAAAAAAAAAAAAAAAAAAAAAAAAAAAAAAAAAAAAAAAAAAAAAAAAAAAAAAAAAAAAAAAAAAAAAAAAAAAAAAAAAAAAAAAAAAAAAAAAAAAAAAAAAAAAAAAAAAAAAAAAAAAAAAAAAAAAAAAAAAAAAAAAAAAAAAAAAAAAAAAAAAAAAAAAAAAAAAAAAAAAAAAAAAAAAAAAAAAAAAAAAAAAAAAAAAAAAAAAAAAAAAAAAAAAAAAAAAAAAAAAAAAAAAAAAAAAAAAAAAAAAAAAAAAAAAAAAAAAAAAAAAAAAAAAAAAAAAAAAAAAAAAAAAAAAAAAAAAAAAAAAAAAAAAAAAAAAAAAAAAAAAAAAAAAAAAAAAAAAAAAAAAAAAAAAAAAAAAAAAAAAAAAAAAAAAAAAAAAAAAAAAAAAAAAAAAAAAAAAAAAAAAAAAAAAAAAAAAAAAAAAAAAAAAAAAAAAAAAAAAAAAAAAAAAAAAAAAAAAAAAAAAAAAAAAAAAAAAAAAAAAAAAAAAAAAAAAAAAAAAAAAAAAAAAAAAAAAAAAAAAAAAAAAAAAAAAAAAAAAAAAAAAAAAAAAAAAAAAAAAAAAAAAAAAAAAAAAAAAAAAAAAAAAAAAAAAAAAAAAAAAAAAAAAAAAAAAAAAAAAAAAAAAAAAAAAAAAAAAAAAAAAAAAAAAAAAAAAAAAAAAAAAAAAAAAAAAAAAAAAAAAAAAAAAAAAAAAAAAAAAAAAAAAAAAAAAAAAAAAAAAAAAAAAAAAAAAAAAAAAAAAAAAAAAAAAAAAAAAAAAAAAAAAAAAAAAAAAAAAAAAAAAAAAAAAAAAAAAAAAAAAAAAAAAAAAAAAAAAAAAAAAAAAAAAAAAAAAAAAAAAAAAAAAAAAAAAAAAAAAAAAAAAAAAAAAAAAAAAAAAAAAAAAAAAAAAAAAAAAAAAAAAAAAAAAAAAAAAAAAAAAAAAAAAAAAAAAAAAAAAAAAAAAAAAAAAAAAAAAAAAAAAAAAAAAAAAAAAAAAAAAAAAAAAAAAAAAAAAAAAAAAAAAAAAAAAAAAAAAAAAAAAAAAAAAAAAAAAAAAAAAAAAAAAAAAAAAAAAAAAAAAAAAAAAAAAAAAAAAAAAAAAAAAAAAAAAAAAAAAAAAAAAAAAAAAAAAAAAAAAAAAAAAAAAAAAAAAAAAAAAAAAAAAAAAAAAAAAAAAAAAAAAAAAAAAAAAAAAAAAAAAAAAAAAAAAAAAAAAAAAAAAAAAAAAAAAAAAAAAAAAAAAAAAAAAAAAAAAAAAAAAAAAAAAAAAAAAAAAAAAAAAAAAAAAAAAAAAAAAAAAAAAAAAAAAAAAAAAAAAAAAAAAAAAAAAAAAAAAAAAAAAAAAAAAAAAAAAAAAAAAAAAAAAAAAAAAAAAAAAAAAAAAAAAAAAAAAAAAAAAAAAAAAAAAAAAAAAAAAAAAAAAAAAAAAAAAAAAAAAAAAAAAAAAAAAAAAAAAAAAAAAAAAAAAAAAAAAAAAAAAAAAAAAAAAAAAAAAAAAAAAAAAAAAAAAAAAAAAAAAAAAAAAAAAAAAAAAAAAAAAAAAAAAAAAAAAAAAAAAAAAAAAAAAAAAAAAAAAAAAAAAAAAAAAAAAAAAAAAAAAAAAAAAAAAAAAAAAAAAAAAAAAAAAAAAAAAAAAAAAAAAAAAAAAAAAAAAAAAAAAAAAAAAAAAAAAAAAAAAAAAAAAAAAAAAAAAAAAAAAAAAAAAAAAAAAAAAAAAAAAAAAAAAAAAAAAAAAAAAAAAAAAAAAAAAAAAAAAAAAAAAAAAAAAAAAAAAAAAAAAAAAAAAAAAAAAAAAAAAAAAAAAAAAAAAAAAAAAAAAAAAAAAAAAAAAAAAAAAAAAAAAAAAAAAAAAAAAAAAAAAAAAAAAAAAAAAAAAAAAAAAAAAAAAAAAAAAAAAAAAAAAAAAAAAAAAAAAAAAAAAAAAAAAAAAAAAAAAAAAAAAAAAAAAAAAAAAAAAAAAAAAAAAAAAAAAAAAAAAAAAAAAAAAAAAAAAAAAAAAAAAPZYQGLNp9NqyVhxIVSy7Kr/6i80IgQruL50jVaS2zAQLv8QldOSV2L5Z5kbQiiChIxOmfKvhN5pyicajhU1UhBMRfI=</c2pa:manifest></metadata><rect x="141.4" y="26.4" width="2.5" height="68.0" fill="#3A3A3A"/><path d="M17.472 24.54V28.252000000000002H11.84V92.444H17.472V96.22H7.6160000000000005V24.54Z" fill="#C8A24A"/><path d="M44.480000000000004 48.092Q51.2 48.092 55.712 51.612Q60.224000000000004 55.132000000000005 61.632000000000005 61.532000000000004H49.984Q48.512 57.43600000000001 44.288 57.43600000000001Q41.28 57.43600000000001 39.488 59.772000000000006Q37.696 62.108000000000004 37.696 66.46000000000001Q37.696 70.812 39.488 73.148Q41.28 75.48400000000001 44.288 75.48400000000001Q48.512 75.48400000000001 49.984 71.388H61.632000000000005Q60.224000000000004 77.66 55.68000000000001 81.244Q51.136 84.828 44.480000000000004 84.828Q39.232 84.828 35.168 82.588Q31.104 80.348 28.832 76.188Q26.560000000000002 72.028 26.560000000000002 66.46000000000001Q26.560000000000002 60.892 28.832 56.732Q31.104 52.572 35.168 50.332Q39.232 48.092 44.480000000000004 48.092Z M83.2 48.092Q89.92 48.092 94.432 51.612Q98.944 55.132000000000005 100.352 61.532000000000004H88.70400000000001Q87.232 57.43600000000001 83.008 57.43600000000001Q80.0 57.43600000000001 78.208 59.772000000000006Q76.416 62.108000000000004 76.416 66.46000000000001Q76.416 70.812 78.208 73.148Q80.0 75.48400000000001 83.008 75.48400000000001Q87.232 75.48400000000001 88.70400000000001 71.388H100.352Q98.944 77.66 94.4 81.244Q89.856 84.828 83.2 84.828Q77.952 84.828 73.888 82.588Q69.824 80.348 67.55199999999999 76.188Q65.28 72.028 65.28 66.46000000000001Q65.28 60.892 67.55199999999999 56.732Q69.824 52.572 73.888 50.332Q77.952 48.092 83.2 48.092Z" fill="#FFFFFF"/><path d="M119.36 96.22H109.504V92.444H115.136V28.252000000000002H109.504V24.54H119.36Z" fill="#C8A24A"/><path d="M178.8 23.599999999999998Q183.8 23.599999999999998 187.36 26.24Q190.92000000000002 28.88 192.12 33.44H184.60000000000002Q183.76000000000002 31.68 182.22000000000003 30.759999999999998Q180.68 29.84 178.72000000000003 29.84Q175.56 29.84 173.60000000000002 32.04Q171.64000000000001 34.239999999999995 171.64000000000001 37.92Q171.64000000000001 41.6 173.60000000000002 43.8Q175.56 46.0 178.72000000000003 46.0Q180.68 46.0 182.22000000000003 45.08Q183.76000000000002 44.16 184.60000000000002 42.4H192.12Q190.92000000000002 46.96 187.36 49.58Q183.8 52.2 178.8 52.2Q174.72000000000003 52.2 171.5 50.38Q168.28 48.56 166.48000000000002 45.32Q164.68 42.08 164.68 37.92Q164.68 33.76 166.48000000000002 30.5Q168.28 27.24 171.5 25.419999999999998Q174.72000000000003 23.599999999999998 178.8 23.599999999999998Z M203.16 22.4V52.0H196.32V22.4Z M229.04000000000002 42.480000000000004H213.56Q213.72000000000003 44.56 214.90000000000003 45.66Q216.08 46.76 217.8 46.76Q220.36 46.76 221.36 44.6H228.64000000000001Q228.08 46.8 226.62 48.56Q225.16000000000003 50.32 222.96000000000004 51.32Q220.76000000000002 52.32 218.04000000000002 52.32Q214.76000000000002 52.32 212.20000000000002 50.92Q209.64000000000001 49.52 208.20000000000002 46.92Q206.76000000000002 44.32 206.76000000000002 40.84Q206.76000000000002 37.36 208.18 34.76Q209.60000000000002 32.16 212.16000000000003 30.759999999999998Q214.72000000000003 29.36 218.04000000000002 29.36Q221.28000000000003 29.36 223.8 30.72Q226.32000000000002 32.08 227.74 34.599999999999994Q229.16000000000003 37.12 229.16000000000003 40.480000000000004Q229.16000000000003 41.44 229.04000000000002 42.480000000000004ZM222.16000000000003 38.68Q222.16000000000003 36.92 220.96000000000004 35.88Q219.76000000000002 34.84 217.96 34.84Q216.24 34.84 215.06 35.84Q213.88000000000002 36.84 213.60000000000002 38.68Z M241.24000000000004 29.36Q243.60000000000002 29.36 245.38000000000002 30.32Q247.16000000000003 31.28 248.12000000000003 32.84V29.68H254.96000000000004V52.0H248.12000000000003V48.84Q247.12000000000003 50.4 245.34000000000003 51.36Q243.56000000000003 52.32 241.20000000000002 52.32Q238.48000000000002 52.32 236.24 50.9Q234.00000000000003 49.48 232.70000000000005 46.86Q231.40000000000003 44.24 231.40000000000003 40.8Q231.40000000000003 37.36 232.70000000000005 34.76Q234.00000000000003 32.16 236.24 30.759999999999998Q238.48000000000002 29.36 241.24000000000004 29.36ZM243.24000000000004 35.32Q241.20000000000002 35.32 239.78000000000003 36.78Q238.36000000000004 38.24 238.36000000000004 40.8Q238.36000000000004 43.36 239.78000000000003 44.86Q241.20000000000002 46.36 243.24000000000004 46.36Q245.28000000000003 46.36 246.70000000000005 44.879999999999995Q248.12000000000003 43.4 248.12000000000003 40.84Q248.12000000000003 38.28 246.70000000000005 36.8Q245.28000000000003 35.32 243.24000000000004 35.32Z M273.76000000000005 29.44V36.68H271.88000000000005Q269.32000000000005 36.68 268.0400000000001 37.78Q266.76000000000005 38.879999999999995 266.76000000000005 41.64V52.0H259.9200000000001V29.68H266.76000000000005V33.4Q267.96000000000004 31.56 269.76000000000005 30.5Q271.56000000000006 29.44 273.76000000000005 29.44Z M290.00000000000006 23.599999999999998Q295.00000000000006 23.599999999999998 298.56000000000006 26.24Q302.12000000000006 28.88 303.32000000000005 33.44H295.80000000000007Q294.96000000000004 31.68 293.4200000000001 30.759999999999998Q291.88000000000005 29.84 289.9200000000001 29.84Q286.76000000000005 29.84 284.80000000000007 32.04Q282.84000000000003 34.239999999999995 282.84000000000003 37.92Q282.84000000000003 41.6 284.80000000000007 43.8Q286.76000000000005 46.0 289.9200000000001 46.0Q291.88000000000005 46.0 293.4200000000001 45.08Q294.96000000000004 44.16 295.80000000000007 42.4H303.32000000000005Q302.12000000000006 46.96 298.56000000000006 49.58Q295.00000000000006 52.2 290.00000000000006 52.2Q285.9200000000001 52.2 282.70000000000005 50.38Q279.4800000000001 48.56 277.68000000000006 45.32Q275.88000000000005 42.08 275.88000000000005 37.92Q275.88000000000005 33.76 277.68000000000006 30.5Q279.4800000000001 27.24 282.70000000000005 25.419999999999998Q285.9200000000001 23.599999999999998 290.00000000000006 23.599999999999998Z M329.56000000000006 29.68V52.0H322.7200000000001V48.96Q321.68000000000006 50.44 319.9000000000001 51.34Q318.12000000000006 52.24 315.9600000000001 52.24Q313.4000000000001 52.24 311.44000000000005 51.1Q309.4800000000001 49.96 308.4000000000001 47.8Q307.32000000000005 45.64 307.32000000000005 42.72V29.68H314.12000000000006V41.8Q314.12000000000006 44.04 315.2800000000001 45.28Q316.44000000000005 46.519999999999996 318.4000000000001 46.519999999999996Q320.4000000000001 46.519999999999996 321.56000000000006 45.28Q322.7200000000001 44.04 322.7200000000001 41.8V29.68Z M346.9200000000001 46.2V52.0H343.44000000000005Q339.7200000000001 52.0 337.6400000000001 50.18Q335.56000000000006 48.36 335.56000000000006 44.24V35.36H332.84000000000003V29.68H335.56000000000006V24.24H342.40000000000003V29.68H346.88000000000005V35.36H342.40000000000003V44.32Q342.40000000000003 45.32 342.88000000000005 45.760000000000005Q343.36000000000007 46.2 344.4800000000001 46.2Z" fill="#FFFFFF"/><path d="M170.08 95.04H179.84V98.0H166.44000000000003V70.12H170.08Z M192.76000000000002 75.72Q195.64000000000001 75.72 197.76000000000002 76.96000000000001Q199.88000000000002 78.2 200.92000000000002 80.08V76.08H204.60000000000002V98.0H200.92000000000002V93.92Q199.84 95.84 197.7 97.1Q195.56 98.36 192.72000000000003 98.36Q189.8 98.36 187.44 96.92Q185.08 95.48 183.72000000000003 92.88Q182.36 90.28 182.36 86.96Q182.36 83.6 183.72000000000003 81.06Q185.08 78.52 187.46 77.12Q189.84 75.72 192.76000000000002 75.72ZM193.48000000000002 78.88Q191.44000000000003 78.88 189.76000000000002 79.84Q188.08 80.8 187.08 82.64Q186.08 84.48 186.08 86.96Q186.08 89.48 187.08 91.34Q188.08 93.2 189.76000000000002 94.18Q191.44000000000003 95.16 193.48000000000002 95.16Q195.52 95.16 197.22000000000003 94.18Q198.92000000000002 93.2 199.92000000000002 91.34Q200.92000000000002 89.48 200.92000000000002 87.0Q200.92000000000002 84.52 199.92000000000002 82.68Q198.92000000000002 80.84 197.22000000000003 79.86Q195.52 78.88 193.48000000000002 78.88Z M239.96 76.08 233.12 98.0H229.36L224.08 80.6L218.8 98.0H215.04000000000002L208.16 76.08H211.88L216.92000000000002 94.48L222.36 76.08H226.08L231.4 94.52L236.36 76.08Z" fill="#BDBAB4"/></svg>